<?xml version="1.0" encoding="UTF-8"?>
<svg width="32px" height="32px" viewBox="0 0 32 32" version="1.1" xmlns="http://www.w3.org/2000/svg" xmlns:xlink="http://www.w3.org/1999/xlink">
    <title>Group 11</title>
    <g id="Page-1" stroke="none" stroke-width="1" fill="none" fill-rule="evenodd">
        <g id="Group-11">
            <rect id="Rectangle" x="0" y="0" width="32" height="32"></rect>
            <g id="Artboard-21" transform="translate(6.5, 4.5)" fill="#2B2B30" fill-rule="nonzero">
                <path d="M17.4948384,14.0528167 L15.8117518,13.2112734 L15.8117518,9.34329359 C15.8106069,7.17483998 14.7224997,5.15135524 12.914109,3.95472863 C12.9277621,3.83480275 12.9353661,3.7142653 12.9368922,3.59357439 C12.9368922,1.60889804 11.3279941,0 9.34331774,0 C7.35864139,0 5.7497433,1.60889804 5.74974324,3.59357439 C5.75126934,3.7142653 5.75887339,3.83480275 5.7725265,3.95472863 C3.96413575,5.15135524 2.8760286,7.17483998 2.87488364,9.34329359 L2.87488364,13.2112734 L1.19179709,14.0528167 C0.459460126,14.4161026 -0.00271119595,15.1640721 1.19682943e-05,15.98156 L1.19682943e-05,17.9678724 C0.000934989048,18.7613653 0.643960918,19.4043912 1.43745384,19.4053022 L5.09571268,19.4053022 C5.44360136,21.4801283 7.23952831,23 9.34331774,23 C11.4471072,23 13.2430341,21.4801283 13.5909228,19.4053022 L17.2491816,19.4053022 C18.0426746,19.4043912 18.6857005,18.7613653 18.6866235,17.9678724 L18.6866235,15.98156 C18.6893467,15.1640721 18.2271754,14.4161026 17.4948384,14.0528167 Z M9.34331774,1.43742969 C10.3950799,1.43996768 11.2912939,2.20153687 11.4635267,3.2391042 C10.0917627,2.75349506 8.59487276,2.75349506 7.22310879,3.2391042 C7.39534162,2.20153687 8.29155556,1.43996768 9.34331774,1.43742969 Z M9.34331774,21.5614469 C8.03605028,21.5575577 6.89634675,20.6713186 6.57051566,19.4053022 L12.1161198,19.4053022 C11.7902887,20.6713186 10.6505852,21.5575577 9.34331774,21.5614469 L9.34331774,21.5614469 Z M17.2491843,17.9678724 L1.43745117,17.9678724 L1.43745117,15.98156 C1.43671149,15.7091245 1.59070765,15.4598943 1.83468757,15.3386695 L3.91507972,14.2984735 C4.15856158,14.1767031 4.31234502,13.9278171 4.31231344,13.655583 L4.31231344,9.34329359 C4.31231344,6.56474664 6.56477079,4.31228929 9.34331774,4.31228929 C12.1218647,4.31228929 14.374322,6.56474664 14.374322,9.34329359 L14.374322,13.655583 C14.3742905,13.9278171 14.5280739,14.1767031 14.7715558,14.2984735 L16.8519479,15.3386695 C17.0959278,15.4598943 17.249924,15.7091245 17.2491843,15.98156 L17.2491843,17.9678724 Z" id="Shape"></path>
            </g>
        </g>
    </g>
</svg>