<?xml version="1.0" encoding="UTF-8"?>
<svg width="32px" height="32px" viewBox="0 0 32 32" version="1.1" xmlns="http://www.w3.org/2000/svg" xmlns:xlink="http://www.w3.org/1999/xlink">
    <title>Group 11</title>
    <g id="Page-1" stroke="none" stroke-width="1" fill="none" fill-rule="evenodd">
        <g id="Group-11">
            <rect id="Rectangle" x="0" y="0" width="32" height="32"></rect>
            <g id="Artboard-11" transform="translate(3, 4)" fill="#1F2021" fill-rule="nonzero">
                <path d="M22.75,0 L3.25,0 C1.45589131,0.00198405292 0.0019702704,1.46607562 0,3.27273454 L0,16.3636727 C0.0019702704,18.1703316 1.45589131,19.6344232 3.25,19.6364073 L4.33333333,19.6364073 L4.33333333,22.9091418 C4.33335348,23.311455 4.55326122,23.6811029 4.90551122,23.8709287 C5.25776121,24.0607544 5.68517218,24.0399433 6.01759167,23.8167802 L12.2445917,19.6364073 L22.75,19.6364073 C24.5441087,19.6344232 25.9980297,18.1703316 26,16.3636727 L26,3.27273454 C25.9980297,1.46607562 24.5441087,0.00198405292 22.75,0 L22.75,0 Z M23.8333333,16.3636727 C23.8325575,16.9658426 23.3479868,17.4538029 22.75,17.4545842 L11.9166667,17.4545842 C11.7027917,17.4546526 11.4937143,17.5184181 11.3157417,17.6378574 L6.5,20.8705554 L6.5,18.5454957 C6.5,17.9430019 6.01497515,17.4545842 5.41666667,17.4545842 L3.25,17.4545842 C2.65201319,17.4538029 2.16744254,16.9658426 2.16666667,16.3636727 L2.16666667,3.27273454 C2.16744254,2.67056467 2.65201319,2.18260433 3.25,2.18182303 L22.75,2.18182303 C23.3479868,2.18260433 23.8325575,2.67056467 23.8333333,3.27273454 L23.8333333,16.3636727 Z" id="Shape"></path>
                <path d="M12.2899873,9.29578271 C12.2467987,9.34314194 12.2067169,9.39324355 12.1699926,9.44577413 C12.1322319,9.50156536 12.1019737,9.56208095 12.0799965,9.62576383 C12.0511045,9.68242067 12.0308801,9.74309309 12.0199991,9.80575353 C12.0082784,9.87181382 12.0015928,9.93866901 12,10.0057421 C12.0027571,10.4826208 12.3418913,10.8911908 12.8101126,10.9817207 C13.2783339,11.0722506 13.7453283,10.8195444 13.9256536,10.3780644 C14.1059788,9.93658436 13.9494473,9.42920199 13.5517363,9.16604596 C13.1540252,8.90288993 12.6258243,8.9572011 12.2899873,9.29578271 L12.2899873,9.29578271 Z" id="Path"></path>
                <path d="M7.61999559,9.07773025 C7.49757646,9.12602853 7.38555364,9.19740232 7.29000602,9.28797851 C6.90333133,9.68280262 6.90333133,10.3148331 7.29000602,10.7096572 C7.38566307,10.8000928 7.49765731,10.8714484 7.61999559,10.9199054 C7.7402141,10.971207 7.86931045,10.9984181 7.99998357,11 C8.4042944,10.9983551 8.76817633,10.7540731 8.9232165,10.3802133 C9.07825667,10.0063534 8.99420445,9.57586131 8.70996113,9.28797851 C8.42199199,9.00469372 7.99247347,8.921842 7.61999559,9.07773025 Z" id="Path"></path>
                <path d="M17.6199851,9.07510061 C17.4988415,9.12594526 17.3872419,9.19714611 17.289993,9.28563648 C17.1072637,9.47775928 17.0036834,9.73200563 17,9.99744824 C17.0015924,10.0646963 17.0082782,10.131726 17.0199995,10.1979586 C17.0308807,10.2607825 17.0511055,10.3216132 17.0799981,10.3784179 C17.1019055,10.4422965 17.1321688,10.502979 17.1699959,10.5588772 C17.209995,10.6090048 17.249994,10.6591324 17.289993,10.70926 C17.3873505,10.7976075 17.4989245,10.868792 17.6199851,10.9197959 C17.7402045,10.9711676 17.8693019,10.998416 17.999976,11 C18.4042899,10.9983529 18.7681746,10.7537367 18.9232159,10.3793654 C19.0782573,10.0049941 18.9942044,9.5739131 18.7099589,9.28563648 C18.4200148,9.00575468 17.9928927,8.92325313 17.6199851,9.07510061 L17.6199851,9.07510061 Z" id="Path"></path>
            </g>
        </g>
    </g>
</svg>