<?xml version="1.0" encoding="UTF-8"?>
<svg width="32px" height="32px" viewBox="0 0 32 32" version="1.1" xmlns="http://www.w3.org/2000/svg" xmlns:xlink="http://www.w3.org/1999/xlink">
    <title>Group 11</title>
    <g id="Page-1" stroke="none" stroke-width="1" fill="none" fill-rule="evenodd">
        <g id="Group-11">
            <rect id="Rectangle" x="0" y="0" width="32" height="32"></rect>
            <g id="Artboard-6" transform="translate(4.5, 4)" fill="#000000" fill-rule="nonzero">
                <path d="M19.1666667,2.25 L18.4,2.25 L18.4,0.75 C18.4,0.335786438 18.0567516,0 17.6333333,0 C17.209915,0 16.8666667,0.335786438 16.8666667,0.75 L16.8666667,2.25 L12.2666667,2.25 L12.2666667,0.75 C12.2666667,0.335786438 11.9234183,0 11.5,0 C11.0765817,0 10.7333333,0.335786438 10.7333333,0.75 L10.7333333,2.25 L6.13333333,2.25 L6.13333333,0.75 C6.13333333,0.335786438 5.79008497,0 5.36666667,0 C4.94324836,0 4.6,0.335786438 4.6,0.75 L4.6,2.25 L3.83333333,2.25 C1.7172751,2.25243835 0.00249253952,3.92994303 0,6 L0,20.25 C0.00249253952,22.320057 1.7172751,23.9975616 3.83333333,24 L19.1666667,24 C21.2827249,23.9975616 22.9975075,22.320057 23,20.25 L23,6 C22.9975075,3.92994303 21.2827249,2.25243835 19.1666667,2.25 Z M1.53333333,6 C1.53472768,4.75792475 2.56365641,3.75136403 3.83333333,3.75 L4.6,3.75 L4.6,5.25 C4.6,5.66421356 4.94324836,6 5.36666667,6 C5.79008497,6 6.13333333,5.66421356 6.13333333,5.25 L6.13333333,3.75 L10.7333333,3.75 L10.7333333,5.25 C10.7333333,5.66421356 11.0765817,6 11.5,6 C11.9234183,6 12.2666667,5.66421356 12.2666667,5.25 L12.2666667,3.75 L16.8666667,3.75 L16.8666667,5.25 C16.8666667,5.66421356 17.209915,6 17.6333333,6 C18.0567516,6 18.4,5.66421356 18.4,5.25 L18.4,3.75 L19.1666667,3.75 C20.4363436,3.75136403 21.4652723,4.75792475 21.4666667,6 L21.4666667,7.5 L1.53333333,7.5 L1.53333333,6 Z M21.4666667,20.25 C21.4652723,21.4920752 20.4363436,22.498636 19.1666667,22.5 L3.83333333,22.5 C2.56365641,22.498636 1.53472768,21.4920752 1.53333333,20.25 L1.53333333,9 L21.4666667,9 L21.4666667,20.25 Z" id="Shape"></path>
                <path d="M3.75,16 L5.25,16 C5.66421356,16 6,15.5522847 6,15 C6,14.4477153 5.66421356,14 5.25,14 L3.75,14 C3.33578644,14 3,14.4477153 3,15 C3,15.5522847 3.33578644,16 3.75,16 Z" id="Path"></path>
                <path d="M8.75,16 L10.25,16 C10.6642136,16 11,15.5522847 11,15 C11,14.4477153 10.6642136,14 10.25,14 L8.75,14 C8.33578644,14 8,14.4477153 8,15 C8,15.5522847 8.33578644,16 8.75,16 Z" id="Path"></path>
                <path d="M12.75,16 L14.25,16 C14.6642136,16 15,15.5522847 15,15 C15,14.4477153 14.6642136,14 14.25,14 L12.75,14 C12.3357864,14 12,14.4477153 12,15 C12,15.5522847 12.3357864,16 12.75,16 Z" id="Path"></path>
                <path d="M17.75,16 L19.25,16 C19.6642136,16 20,15.5522847 20,15 C20,14.4477153 19.6642136,14 19.25,14 L17.75,14 C17.3357864,14 17,14.4477153 17,15 C17,15.5522847 17.3357864,16 17.75,16 Z" id="Path"></path>
                <path d="M3.75,12 L5.25,12 C5.66421356,12 6,11.5522847 6,11 C6,10.4477153 5.66421356,10 5.25,10 L3.75,10 C3.33578644,10 3,10.4477153 3,11 C3,11.5522847 3.33578644,12 3.75,12 Z" id="Path"></path>
                <path d="M8.75,12 L10.25,12 C10.6642136,12 11,11.5522847 11,11 C11,10.4477153 10.6642136,10 10.25,10 L8.75,10 C8.33578644,10 8,10.4477153 8,11 C8,11.5522847 8.33578644,12 8.75,12 Z" id="Path"></path>
                <path d="M12.75,12 L14.25,12 C14.6642136,12 15,11.5522847 15,11 C15,10.4477153 14.6642136,10 14.25,10 L12.75,10 C12.3357864,10 12,10.4477153 12,11 C12,11.5522847 12.3357864,12 12.75,12 Z" id="Path"></path>
                <path d="M17.75,12 L19.25,12 C19.6642136,12 20,11.5522847 20,11 C20,10.4477153 19.6642136,10 19.25,10 L17.75,10 C17.3357864,10 17,10.4477153 17,11 C17,11.5522847 17.3357864,12 17.75,12 Z" id="Path"></path>
                <path d="M3.75,20 L5.25,20 C5.66421356,20 6,19.5522847 6,19 C6,18.4477153 5.66421356,18 5.25,18 L3.75,18 C3.33578644,18 3,18.4477153 3,19 C3,19.5522847 3.33578644,20 3.75,20 Z" id="Path"></path>
                <path d="M8.75,20 L10.25,20 C10.6642136,20 11,19.5522847 11,19 C11,18.4477153 10.6642136,18 10.25,18 L8.75,18 C8.33578644,18 8,18.4477153 8,19 C8,19.5522847 8.33578644,20 8.75,20 Z" id="Path"></path>
                <path d="M12.75,20 L14.25,20 C14.6642136,20 15,19.5522847 15,19 C15,18.4477153 14.6642136,18 14.25,18 L12.75,18 C12.3357864,18 12,18.4477153 12,19 C12,19.5522847 12.3357864,20 12.75,20 Z" id="Path"></path>
                <path d="M17.75,20 L19.25,20 C19.6642136,20 20,19.5522847 20,19 C20,18.4477153 19.6642136,18 19.25,18 L17.75,18 C17.3357864,18 17,18.4477153 17,19 C17,19.5522847 17.3357864,20 17.75,20 Z" id="Path"></path>
            </g>
        </g>
    </g>
</svg>