<?xml version="1.0" encoding="UTF-8"?>
<svg width="32px" height="32px" viewBox="0 0 32 32" version="1.1" xmlns="http://www.w3.org/2000/svg" xmlns:xlink="http://www.w3.org/1999/xlink">
    <title>Group 11</title>
    <g id="Page-1" stroke="none" stroke-width="1" fill="none" fill-rule="evenodd">
        <g id="Group-11">
            <rect id="Rectangle" x="0" y="0" width="32" height="32"></rect>
            <g id="Artboard-47" transform="translate(4.25, 6)" fill="#000000" fill-rule="nonzero">
                <path d="M22.6607143,5.10869565 L17.625,5.10869565 L17.625,0.851449275 C17.625,0.381206825 17.249239,0 16.7857143,0 L6.71428571,0 C6.25076101,0 5.875,0.381206825 5.875,0.851449275 L5.875,5.10869565 L0.839285714,5.10869565 C0.375761014,5.10869565 0,5.48990248 0,5.96014493 L0,19.5833333 C0,20.0535758 0.375761014,20.4347826 0.839285714,20.4347826 L22.6607143,20.4347826 C23.124239,20.4347826 23.5,20.0535758 23.5,19.5833333 L23.5,5.96014493 C23.5,5.48990248 23.124239,5.10869565 22.6607143,5.10869565 Z M1.67857143,6.8115942 L5.875,6.8115942 L5.875,18.7318841 L1.67857143,18.7318841 L1.67857143,6.8115942 Z M7.55357143,1.70289855 L15.9464286,1.70289855 L15.9464286,18.7318841 L14.2678571,18.7318841 L14.2678571,16.1775362 C14.2678571,14.7668089 13.1405741,13.6231884 11.75,13.6231884 C10.3594259,13.6231884 9.23214286,14.7668089 9.23214286,16.1775362 L9.23214286,18.7318841 L7.55357143,18.7318841 L7.55357143,1.70289855 Z M10.9107143,18.7318841 L10.9107143,16.1775362 C10.9107143,15.7072938 11.2864753,15.326087 11.75,15.326087 C12.2135247,15.326087 12.5892857,15.7072938 12.5892857,16.1775362 L12.5892857,18.7318841 L10.9107143,18.7318841 Z M21.8214286,18.7318841 L17.625,18.7318841 L17.625,6.8115942 L21.8214286,6.8115942 L21.8214286,18.7318841 Z" id="Shape"></path>
                <path d="M19.4130435,13.2826087 L20.4347826,13.2826087 C20.9990735,13.2826087 21.4565217,12.8251605 21.4565217,12.2608696 C21.4565217,11.6965786 20.9990735,11.2391304 20.4347826,11.2391304 L19.4130435,11.2391304 C18.8487525,11.2391304 18.3913043,11.6965786 18.3913043,12.2608696 C18.3913043,12.8251605 18.8487525,13.2826087 19.4130435,13.2826087 Z" id="Path"></path>
                <path d="M19.4130435,17.3695652 L20.4347826,17.3695652 C20.9990735,17.3695652 21.4565217,16.912117 21.4565217,16.3478261 C21.4565217,15.7835351 20.9990735,15.326087 20.4347826,15.326087 L19.4130435,15.326087 C18.8487525,15.326087 18.3913043,15.7835351 18.3913043,16.3478261 C18.3913043,16.912117 18.8487525,17.3695652 19.4130435,17.3695652 Z" id="Path"></path>
                <path d="M19.4130435,10.2173913 L20.4347826,10.2173913 C20.9990735,10.2173913 21.4565217,9.75994311 21.4565217,9.19565217 C21.4565217,8.63136123 20.9990735,8.17391304 20.4347826,8.17391304 L19.4130435,8.17391304 C18.8487525,8.17391304 18.3913043,8.63136123 18.3913043,9.19565217 C18.3913043,9.75994311 18.8487525,10.2173913 19.4130435,10.2173913 Z" id="Path"></path>
                <path d="M5.10869565,11.2391304 L4.08695652,11.2391304 C3.52266558,11.2391304 3.06521739,11.6965786 3.06521739,12.2608696 C3.06521739,12.8251605 3.52266558,13.2826087 4.08695652,13.2826087 L5.10869565,13.2826087 C5.67298659,13.2826087 6.13043478,12.8251605 6.13043478,12.2608696 C6.13043478,11.6965786 5.67298659,11.2391304 5.10869565,11.2391304 Z" id="Path"></path>
                <path d="M5.10869565,15.326087 L4.08695652,15.326087 C3.52266558,15.326087 3.06521739,15.7835351 3.06521739,16.3478261 C3.06521739,16.912117 3.52266558,17.3695652 4.08695652,17.3695652 L5.10869565,17.3695652 C5.67298659,17.3695652 6.13043478,16.912117 6.13043478,16.3478261 C6.13043478,15.7835351 5.67298659,15.326087 5.10869565,15.326087 Z" id="Path"></path>
                <path d="M5.10869565,8.17391304 L4.08695652,8.17391304 C3.52266558,8.17391304 3.06521739,8.63136123 3.06521739,9.19565217 C3.06521739,9.75994311 3.52266558,10.2173913 4.08695652,10.2173913 L5.10869565,10.2173913 C5.67298659,10.2173913 6.13043478,9.75994311 6.13043478,9.19565217 C6.13043478,8.63136123 5.67298659,8.17391304 5.10869565,8.17391304 Z" id="Path"></path>
                <path d="M10.0471014,12.2608696 L13.4528986,12.2608696 C13.923141,12.2608696 14.3043478,11.8034214 14.3043478,11.2391304 C14.3043478,10.6748395 13.923141,10.2173913 13.4528986,10.2173913 L10.0471014,10.2173913 C9.576859,10.2173913 9.19565217,10.6748395 9.19565217,11.2391304 C9.19565217,11.8034214 9.576859,12.2608696 10.0471014,12.2608696 Z" id="Path"></path>
                <path d="M10.0471014,8.17391304 L13.4528986,8.17391304 C13.923141,8.17391304 14.3043478,7.71646485 14.3043478,7.15217391 C14.3043478,6.58788297 13.923141,6.13043478 13.4528986,6.13043478 L10.0471014,6.13043478 C9.576859,6.13043478 9.19565217,6.58788297 9.19565217,7.15217391 C9.19565217,7.71646485 9.576859,8.17391304 10.0471014,8.17391304 Z" id="Path"></path>
                <path d="M10.0471014,5.10869565 L13.4528986,5.10869565 C13.923141,5.10869565 14.3043478,4.65124746 14.3043478,4.08695652 C14.3043478,3.52266558 13.923141,3.06521739 13.4528986,3.06521739 L10.0471014,3.06521739 C9.576859,3.06521739 9.19565217,3.52266558 9.19565217,4.08695652 C9.19565217,4.65124746 9.576859,5.10869565 10.0471014,5.10869565 Z" id="Path"></path>
            </g>
        </g>
    </g>
</svg>