<?xml version="1.0" encoding="UTF-8"?>
<svg width="32px" height="32px" viewBox="0 0 32 32" version="1.1" xmlns="http://www.w3.org/2000/svg" xmlns:xlink="http://www.w3.org/1999/xlink">
    <title>Group 11</title>
    <g id="Page-1" stroke="none" stroke-width="1" fill="none" fill-rule="evenodd">
        <g id="Group-11">
            <rect id="Rectangle" x="0" y="0" width="32" height="32"></rect>
            <g id="Artboard-12" transform="translate(4.25, 6)" fill="#000000" fill-rule="nonzero">
                <path d="M20.7884615,4.45075758 L13.1656038,4.45075758 L11.2438462,1.29695076 C10.752231,0.494211978 9.87074848,0.00248835145 8.91888269,0 L2.71153846,0 C1.21467855,0.00161892847 0.00164383507,1.19627433 0,2.67045455 L0,16.9128788 C0.00164383507,18.387059 1.21467855,19.5817144 2.71153846,19.5833333 L20.7884615,19.5833333 C22.2853215,19.5817144 23.4983562,18.387059 23.5,16.9128788 L23.5,7.12121212 C23.4983562,5.6470319 22.2853215,4.4523765 20.7884615,4.45075758 L20.7884615,4.45075758 Z M1.80769231,2.67045455 C1.80833963,2.17910175 2.21262639,1.78094055 2.71153846,1.78030303 L8.91888269,1.78030303 C9.23617691,1.78119712 9.52998252,1.94514415 9.69384038,2.21273864 L11.0575635,4.45075758 L1.80769231,4.45075758 L1.80769231,2.67045455 Z M21.6923077,16.9128788 C21.6916604,17.4042316 21.2873736,17.8023928 20.7884615,17.8030303 L2.71153846,17.8030303 C2.21262639,17.8023928 1.80833963,17.4042316 1.80769231,16.9128788 L1.80769231,6.23106061 L20.7884615,6.23106061 C21.2873736,6.23169812 21.6916604,6.62985932 21.6923077,7.12121212 L21.6923077,16.9128788 Z" id="Shape"></path>
            </g>
        </g>
    </g>
</svg>