<?xml version="1.0" encoding="UTF-8"?>
<svg width="32px" height="32px" viewBox="0 0 32 32" version="1.1" xmlns="http://www.w3.org/2000/svg" xmlns:xlink="http://www.w3.org/1999/xlink">
    <title>Group 11</title>
    <g id="Page-1" stroke="none" stroke-width="1" fill="none" fill-rule="evenodd">
        <g id="Group-11">
            <rect id="Rectangle" x="0" y="0" width="32" height="32"></rect>
            <g id="Artboard-35" transform="translate(6.5, 4.25)" fill="#2B2B30" fill-rule="nonzero">
                <path d="M18.5704833,6.49618333 L12.3038167,0.229516667 C12.1569815,0.0825518985 11.9577479,0 11.75,0 L3.91666667,0 C1.75460716,0.00254672516 0.00254672516,1.75460716 0,3.91666667 L0,19.5833333 C0.00254672516,21.7453928 1.75460716,23.4974533 3.91666667,23.5 L14.8833333,23.5 C17.0453928,23.4974533 18.7974533,21.7453928 18.8,19.5833333 L18.8,7.05 C18.8,6.84225207 18.7174481,6.64301848 18.5704833,6.49618333 Z M12.5333333,2.67437833 L16.1256217,6.26666667 L13.3166667,6.26666667 C12.8841511,6.26640739 12.5335926,5.91584895 12.5333333,5.48333333 L12.5333333,2.67437833 Z M14.8833333,21.9333333 L3.91666667,21.9333333 C2.61938808,21.9319087 1.56809132,20.8806119 1.56666667,19.5833333 L1.56666667,3.91666667 C1.56809132,2.61938808 2.61938808,1.56809132 3.91666667,1.56666667 L10.9666667,1.56666667 L10.9666667,5.48333333 C10.9680913,6.78061192 12.0193881,7.83190868 13.3166667,7.83333333 L17.2333333,7.83333333 L17.2333333,19.5833333 C17.2319087,20.8806119 16.1806119,21.9319087 14.8833333,21.9333333 Z" id="Shape"></path>
                <path d="M14.8833333,9.4 L3.91666667,9.4 C3.48404361,9.4 3.13333333,9.75071028 3.13333333,10.1833333 C3.13333333,10.6159564 3.48404361,10.9666667 3.91666667,10.9666667 L14.8833333,10.9666667 C15.3159564,10.9666667 15.6666667,10.6159564 15.6666667,10.1833333 C15.6666667,9.75071028 15.3159564,9.4 14.8833333,9.4 Z" id="Path"></path>
                <path d="M3.91666667,7.83333333 L8.61666667,7.83333333 C9.04928972,7.83333333 9.4,7.48262305 9.4,7.05 C9.4,6.61737695 9.04928972,6.26666667 8.61666667,6.26666667 L3.91666667,6.26666667 C3.48404361,6.26666667 3.13333333,6.61737695 3.13333333,7.05 C3.13333333,7.48262305 3.48404361,7.83333333 3.91666667,7.83333333 Z" id="Path"></path>
                <path d="M3.91666667,4.7 L8.61666667,4.7 C9.04928972,4.7 9.4,4.34928972 9.4,3.91666667 C9.4,3.48404361 9.04928972,3.13333333 8.61666667,3.13333333 L3.91666667,3.13333333 C3.48404361,3.13333333 3.13333333,3.48404361 3.13333333,3.91666667 C3.13333333,4.34928972 3.48404361,4.7 3.91666667,4.7 Z" id="Path"></path>
                <path d="M14.8833333,18.8 L3.91666667,18.8 C3.48404361,18.8 3.13333333,19.1507103 3.13333333,19.5833333 C3.13333333,20.0159564 3.48404361,20.3666667 3.91666667,20.3666667 L14.8833333,20.3666667 C15.3159564,20.3666667 15.6666667,20.0159564 15.6666667,19.5833333 C15.6666667,19.1507103 15.3159564,18.8 14.8833333,18.8 Z" id="Path"></path>
                <path d="M14.8833333,15.6666667 L3.91666667,15.6666667 C3.48404361,15.6666667 3.13333333,16.0173769 3.13333333,16.45 C3.13333333,16.8826231 3.48404361,17.2333333 3.91666667,17.2333333 L14.8833333,17.2333333 C15.3159564,17.2333333 15.6666667,16.8826231 15.6666667,16.45 C15.6666667,16.0173769 15.3159564,15.6666667 14.8833333,15.6666667 Z" id="Path"></path>
                <path d="M14.8833333,12.5333333 L3.91666667,12.5333333 C3.48404361,12.5333333 3.13333333,12.8840436 3.13333333,13.3166667 C3.13333333,13.7492897 3.48404361,14.1 3.91666667,14.1 L14.8833333,14.1 C15.3159564,14.1 15.6666667,13.7492897 15.6666667,13.3166667 C15.6666667,12.8840436 15.3159564,12.5333333 14.8833333,12.5333333 Z" id="Path"></path>
            </g>
        </g>
    </g>
</svg>