<?xml version="1.0" encoding="UTF-8"?>
<svg width="32px" height="32px" viewBox="0 0 32 32" version="1.1" xmlns="http://www.w3.org/2000/svg" xmlns:xlink="http://www.w3.org/1999/xlink">
    <title>Group 11</title>
    <g id="Page-1" stroke="none" stroke-width="1" fill="none" fill-rule="evenodd">
        <g id="Group-11">
            <rect id="Rectangle" x="0" y="0" width="32" height="32"></rect>
            <g id="Artboard-46" transform="translate(4.5, 4.5)" fill="#1F2021" fill-rule="nonzero">
                <path d="M22.1789159,0 L0.82144135,0 C0.454357935,0.0073622673 0.134233093,0.251409288 0.0299004874,0.603430799 L0.0289147578,0.605648691 L0.0289147578,0.605648691 C0.00971753813,0.675972544 0,0.748544293 0,0.821441327 L0,13.9645026 C0,14.2557362 0.154072962,14.5252342 0.405134886,14.6728314 L14.3696375,22.8872447 C14.6237202,23.0360815 14.9379995,23.0376713 15.193575,22.8914125 C15.4491505,22.7451538 15.6069925,22.4733819 15.6073852,22.1789158 L15.6073852,17.2502679 L22.1789159,17.2502679 C22.6325854,17.2502679 23.0003572,16.8824961 23.0003572,16.4288265 L23.0003572,0.821441327 C23.0003572,0.367771809 22.6325854,0 22.1789159,0 Z M21.3574745,2.46432398 L5.23479917,2.46432398 L3.83834891,1.64288265 L21.3574745,1.64288265 L21.3574745,2.46432398 Z M21.3574745,4.92864796 L9.42423208,4.92864796 L8.02778183,4.10720664 L21.3574745,4.10720664 L21.3574745,4.92864796 Z M13.9645026,15.8151277 L12.3216199,14.8500985 L12.3216199,13.4695842 L13.9645026,14.4346134 L13.9645026,15.8151277 Z M1.64288268,13.4943917 L1.64288268,2.25789578 L13.9645026,9.50596547 L13.9645026,12.5293624 L11.9160743,11.3261152 C11.6621312,11.1770222 11.3478084,11.1752676 11.0922167,11.3215164 C10.8366249,11.4677652 10.678872,11.7396399 10.6787373,12.0341154 L10.6787373,15.3198808 C10.678854,15.6111717 10.8331366,15.8806428 11.0842829,16.0282096 L13.9645026,17.7203787 L13.9645026,20.7432828 L1.64288268,13.4943917 Z M15.6073852,15.6073852 L15.6073852,9.0358546 C15.6074541,8.74462099 15.4533123,8.47512293 15.2022504,8.32752574 L12.2170505,6.57153062 L21.3574745,6.57153062 L21.3574745,15.6073852 L15.6073852,15.6073852 Z" id="Shape"></path>
            </g>
        </g>
    </g>
</svg>