<?xml version="1.0" encoding="UTF-8"?>
<svg width="32px" height="32px" viewBox="0 0 32 32" version="1.1" xmlns="http://www.w3.org/2000/svg" xmlns:xlink="http://www.w3.org/1999/xlink">
    <title>Group 11</title>
    <g id="Page-1" stroke="none" stroke-width="1" fill="none" fill-rule="evenodd">
        <g id="Group-11">
            <rect id="Rectangle" x="0" y="0" width="32" height="32"></rect>
            <g id="Artboard-2" transform="translate(4.5, 4.5)" fill="#2B2B30" fill-rule="nonzero">
                <path d="M11.8026316,13.3157895 C14.6439913,13.3157895 16.9473684,11.0124123 16.9473684,8.17105263 C16.9473684,5.32969293 14.6439913,3.02631579 11.8026316,3.02631579 C8.96127188,3.02631579 6.65789474,5.32969293 6.65789474,8.17105263 C6.66105409,11.0111027 8.96258155,13.3126301 11.8026316,13.3157895 Z M11.8026316,4.4962406 C13.8321742,4.4962406 15.4774436,6.14150999 15.4774436,8.17105263 C15.4774436,10.2005953 13.8321742,11.8458647 11.8026316,11.8458647 C9.77308894,11.8458647 8.12781955,10.2005953 8.12781955,8.17105263 C8.13020901,6.14250056 9.77407951,4.49863007 11.8026316,4.4962406 Z" id="Shape"></path>
                <path d="M23,11.5 C23,5.14872538 17.8512746,0 11.5,0 C5.14872538,0 0,5.14872538 0,11.5 C0,17.8512746 5.14872538,23 11.5,23 C17.8482698,22.9927516 22.9927516,17.8482698 23,11.5 Z M11.5,1.43748435 C15.2780034,1.43084994 18.7402201,3.54462939 20.4606095,6.90820095 C22.180999,10.2717725 21.8685634,14.3161998 19.6519906,17.3756375 C17.4006699,15.3993132 14.4953748,14.3299133 11.5,14.375 C8.50462523,14.3299133 5.59933008,15.3993132 3.34800938,17.3756375 C1.13143664,14.3161998 0.819000985,10.2717725 2.53939045,6.90820095 C4.25977992,3.54462939 7.72199664,1.43084994 11.5,1.43748435 Z M11.5,21.5625 C8.77132369,21.5623204 6.16058083,20.4500379 4.27016562,18.4822969 C6.25934925,16.7160607 8.84030279,15.7629792 11.5,15.8125 C14.1596972,15.7629792 16.7406508,16.7160607 18.7298344,18.4822969 C16.8394192,20.4500379 14.2286763,21.5623204 11.5,21.5625 L11.5,21.5625 Z" id="Shape"></path>
            </g>
        </g>
    </g>
</svg>