<?xml version="1.0" encoding="UTF-8"?>
<svg width="32px" height="32px" viewBox="0 0 32 32" version="1.1" xmlns="http://www.w3.org/2000/svg" xmlns:xlink="http://www.w3.org/1999/xlink">
    <title>Group 11</title>
    <g id="Page-1" stroke="none" stroke-width="1" fill="none" fill-rule="evenodd">
        <g id="Group-11">
            <rect id="Rectangle" x="0" y="0" width="32" height="32"></rect>
            <g id="Artboard-18" transform="translate(4.5, 5.5)" fill="#1F2021" fill-rule="nonzero">
                <path d="M22.1785714,0 L0.821428571,0 C0.367766098,0 0,0.363051148 0,0.810897436 L0,15.4070513 C0,15.8548976 0.367766098,16.2179487 0.821428571,16.2179487 L8.21428571,16.2179487 L8.21428571,17.0288462 C8.21279177,18.3717737 7.11036813,19.4600637 5.75,19.4615385 C5.29633753,19.4615385 4.92857143,19.8245896 4.92857143,20.2724359 C4.92857143,20.7202822 5.29633753,21.0833333 5.75,21.0833333 L17.25,21.0833333 C17.7036625,21.0833333 18.0714286,20.7202822 18.0714286,20.2724359 C18.0714286,19.8245896 17.7036625,19.4615385 17.25,19.4615385 C15.8896319,19.4600637 14.7872082,18.3717737 14.7857143,17.0288462 L14.7857143,16.2179487 L22.1785714,16.2179487 C22.6322339,16.2179487 23,15.8548976 23,15.4070513 L23,0.810897436 C23,0.363051148 22.6322339,0 22.1785714,0 Z M21.3571429,1.62179487 L21.3571429,11.3525641 L1.64285714,11.3525641 L1.64285714,1.62179487 L21.3571429,1.62179487 Z M13.9659286,19.4615385 L9.03374286,19.4615385 C9.56891104,18.7606228 9.8579863,17.906565 9.85714286,17.0288462 L9.85714286,16.2179487 L13.1428571,16.2179487 L13.1428571,17.0288462 C13.1418651,17.9065365 13.4308294,18.7606071 13.9659286,19.4615385 Z M1.64285714,14.5961538 L1.64285714,12.974359 L21.3571429,12.974359 L21.3571429,14.5961538 L1.64285714,14.5961538 Z" id="Shape"></path>
                <path d="M8.625,10.5416667 C9.15427289,10.5416667 9.58333333,10.1841163 9.58333333,9.74305556 L9.58333333,6.54861111 C9.58333333,6.10755037 9.15427289,5.75 8.625,5.75 C8.09572711,5.75 7.66666667,6.10755037 7.66666667,6.54861111 L7.66666667,9.74305556 C7.66666667,10.1841163 8.09572711,10.5416667 8.625,10.5416667 Z" id="Path"></path>
                <path d="M18.2083333,10.5416667 C18.7376062,10.5416667 19.1666667,10.1841163 19.1666667,9.74305556 L19.1666667,6.54861111 C19.1666667,6.10755037 18.7376062,5.75 18.2083333,5.75 C17.6790604,5.75 17.25,6.10755037 17.25,6.54861111 L17.25,9.74305556 C17.25,10.1841163 17.6790604,10.5416667 18.2083333,10.5416667 Z" id="Path"></path>
                <path d="M4.79166667,10.5416667 C5.32093955,10.5416667 5.75,10.2198713 5.75,9.82291667 L5.75,8.38541667 C5.75,7.988462 5.32093955,7.66666667 4.79166667,7.66666667 C4.26239378,7.66666667 3.83333333,7.988462 3.83333333,8.38541667 L3.83333333,9.82291667 C3.83333333,10.2198713 4.26239378,10.5416667 4.79166667,10.5416667 Z" id="Path"></path>
                <path d="M14.375,10.5416667 C14.9042729,10.5416667 15.3333333,10.1662388 15.3333333,9.703125 L15.3333333,4.671875 C15.3333333,4.20876123 14.9042729,3.83333333 14.375,3.83333333 C13.8457271,3.83333333 13.4166667,4.20876123 13.4166667,4.671875 L13.4166667,9.703125 C13.4166667,10.1662388 13.8457271,10.5416667 14.375,10.5416667 Z" id="Path"></path>
                <path d="M11.5,10.5416667 C12.0292729,10.5416667 12.4583333,10.1984183 12.4583333,9.775 L12.4583333,3.64166667 C12.4583333,3.21824836 12.0292729,2.875 11.5,2.875 C10.9707271,2.875 10.5416667,3.21824836 10.5416667,3.64166667 L10.5416667,9.775 C10.5416667,10.1984183 10.9707271,10.5416667 11.5,10.5416667 Z" id="Path"></path>
            </g>
        </g>
    </g>
</svg>