<?xml version="1.0" encoding="UTF-8"?>
<svg width="32px" height="32px" viewBox="0 0 32 32" version="1.1" xmlns="http://www.w3.org/2000/svg" xmlns:xlink="http://www.w3.org/1999/xlink">
    <title>Group 11</title>
    <g id="Page-1" stroke="none" stroke-width="1" fill="none" fill-rule="evenodd">
        <g id="Group-11">
            <rect id="Rectangle" x="0" y="0" width="32" height="32"></rect>
            <g id="Artboard-33" transform="translate(4.5, 4.5)" fill="#000000" fill-rule="nonzero">
                <path d="M11.4792907,18.9250545 C15.5692072,18.9250545 18.8847397,15.609522 18.8847397,11.5196055 C18.8847397,7.42968895 15.5692072,4.11415651 11.4792907,4.11415651 C7.38937415,4.11415651 4.0738417,7.42968895 4.0738417,11.5196055 C4.07837641,15.6076422 7.39125396,18.9205198 11.4792907,18.9250545 Z M11.4792907,5.75981184 C14.6603369,5.75981184 17.2390843,8.3385593 17.2390843,11.5196055 C17.2390843,14.7006517 14.6603369,17.2793992 11.4792907,17.2793992 C8.29824449,17.2793992 5.71949703,14.7006517 5.71949703,11.5196055 C5.72335077,8.34015694 8.29984213,5.76366558 11.4792907,5.75981184 Z" id="Shape"></path>
                <path d="M11.4792907,0 C11.0248555,0 10.656463,0.368410673 10.656463,0.822845845 C10.656463,1.27728102 11.0248555,1.64567351 11.4792907,1.64567351 C16.2304372,1.62603426 20.3277107,4.97951204 21.2476965,9.64077853 C22.1676823,14.302045 19.6517603,18.9607573 15.2494279,20.7477237 C10.8470956,22.5346901 5.79590597,20.947571 3.20676838,16.9638359 C0.61763078,12.9801007 1.2183856,7.71962955 4.63904202,4.42222318 L4.58325431,4.84778965 C4.52417774,5.29845301 4.84162155,5.71167886 5.29228491,5.77075543 C5.74294826,5.829832 6.15617412,5.5123882 6.2152507,5.06172485 L6.53549523,2.61414167 C6.57284934,2.16951598 6.26529481,1.76965586 5.82597093,1.69166958 L3.37838776,1.3716719 C3.08266154,1.32464098 2.78473154,1.44197753 2.60049701,1.67803587 C2.41626247,1.9140942 2.37481204,2.23160328 2.49227054,2.50704728 C2.60972904,2.78249129 2.86755106,2.97238062 3.16543996,3.00284546 L3.67781474,3.0699882 C-0.374608874,6.83035886 -1.17768006,12.9422031 1.76576625,17.6218023 C4.70921256,22.3014015 10.566038,24.2242015 15.7104007,22.1998359 C20.8547635,20.1754703 23.8305589,14.7769329 22.7955325,9.34634874 C21.760506,3.91576453 17.0076204,-0.00974718285 11.4792907,0 Z" id="Path"></path>
                <path d="M10.8982098,12.1020852 L12.6426044,13.8464798 C12.9654646,14.1583087 13.4786671,14.1538491 13.7960595,13.8364566 C14.113452,13.5190642 14.1179116,13.0058617 13.8060828,12.6830015 L12.3021184,11.1788726 L12.3021184,9.0511225 C12.3021184,8.59668733 11.9337259,8.22829483 11.4792907,8.22829483 C11.0248555,8.22829483 10.656463,8.59668733 10.656463,9.0511225 L10.656463,11.5196055 C10.6576224,11.7379386 10.7444285,11.9470948 10.8982098,12.1020852 Z" id="Path"></path>
            </g>
        </g>
    </g>
</svg>