<?xml version="1.0" encoding="UTF-8"?>
<svg width="32px" height="32px" viewBox="0 0 32 32" version="1.1" xmlns="http://www.w3.org/2000/svg" xmlns:xlink="http://www.w3.org/1999/xlink">
    <title>Group 11</title>
    <g id="Page-1" stroke="none" stroke-width="1" fill="none" fill-rule="evenodd">
        <g id="Group-11">
            <rect id="Rectangle" x="0" y="0" width="32" height="32"></rect>
            <g id="Artboard-15" transform="translate(3, 3)" fill="#1F2021" fill-rule="nonzero">
                <path d="M13.5,9 C11.0147186,9 9,11.0147186 9,13.5 C9,15.9852814 11.0147186,18 13.5,18 C15.9852814,18 18,15.9852814 18,13.5 C17.997074,11.0159316 15.9840684,9.00292602 13.5,9 L13.5,9 Z M13.5,16.2 C12.0088312,16.2 10.8,14.9911688 10.8,13.5 C10.8,12.0088312 12.0088312,10.8 13.5,10.8 C14.9911688,10.8 16.2,12.0088312 16.2,13.5 C16.1983632,14.9904903 14.9904903,16.1983632 13.5,16.2 Z" id="Shape"></path>
                <path d="M24.2344015,10.0619106 L21.79059,9.65482534 C21.6636544,9.63346823 21.5965188,9.4956684 21.5738616,9.44125418 C21.5285103,9.34839003 21.5312126,9.2392603 21.5811045,9.14875455 L23.0211314,7.13338563 C23.624218,6.29390636 23.5290188,5.14085437 22.7964174,4.41165331 L21.588533,3.20451196 C20.8599123,2.47133135 19.7067742,2.37563656 18.8672647,2.97868367 L16.8514313,4.41796759 C16.7561367,4.46890763 16.6418964,4.46977545 16.5458388,4.42028902 C16.4490317,4.38573951 16.3745418,4.30704039 16.3453605,4.20848214 L15.9382752,1.76559947 C15.771199,0.745298195 14.8881713,-0.00281428517 13.8542847,7.95832352e-06 L12.1457153,7.95832352e-06 C11.1118638,-0.00276862254 10.2288882,0.745332982 10.0618176,1.76559947 L9.65473239,4.20894642 C9.63291099,4.33634627 9.49603972,4.40301761 9.44069692,4.42613901 C9.34784708,4.47121656 9.23884546,4.4681666 9.14866154,4.41796759 L7.13292099,2.97886939 C6.29395385,2.37453262 5.14012294,2.46981244 4.41165267,3.20358339 L3.20358262,4.4121176 C2.47094375,5.14130123 2.37574212,6.29438169 2.97886859,7.13384992 L4.41815266,9.1488474 C4.46127235,9.24321718 4.46330859,9.35124667 4.42377582,9.44717436 C4.38424305,9.54310205 4.30668464,9.61832979 4.20959576,9.6549182 L1.76429855,10.0619106 C0.744578695,10.2299388 -0.00271321831,11.1128051 7.40451674e-06,12.1462722 L7.40451674e-06,13.8537272 C-0.00264828616,14.8876264 0.745341478,15.7706665 1.76559855,15.9380889 L4.20941004,16.3451741 C4.30540149,16.3728639 4.38249079,16.4445749 4.41703838,16.5383168 L4.42632408,16.5601382 C4.47078558,16.6525474 4.46809038,16.7607008 4.41908123,16.8507807 L2.97886859,18.8666138 C2.37578197,19.7060931 2.47098125,20.8591451 3.20358262,21.5883462 L4.41146695,22.7954875 C5.14007022,23.5287057 6.29323681,23.6244028 7.13273527,23.0213158 L9.14856869,21.5820319 C9.24397722,21.5303772 9.35881672,21.5295072 9.45499691,21.5797105 C9.55160952,21.6142596 9.62581121,21.6930191 9.65454668,21.7915173 L10.0616319,24.2344 C10.2287137,25.2547361 11.1117936,26.0028594 12.1457153,25.9999918 L13.8542847,25.9999918 C14.8881362,26.0027681 15.7711118,25.2546665 15.9381824,24.2344 L16.3452676,21.7910531 C16.367089,21.6631889 16.5031246,21.5969819 16.5588388,21.5738605 C16.6515845,21.5283017 16.7608212,21.5313582 16.8508742,21.5820319 L18.8667076,23.0213158 C19.7059251,23.6253382 20.8596615,23.5300005 21.5883473,22.7964161 L22.7964174,21.5878819 C23.5291145,20.858746 23.6243951,19.705662 23.0213171,18.8661496 L21.5820331,16.8511521 C21.5323554,16.7611579 21.5293105,16.6526845 21.5738616,16.5600453 L21.5847259,16.5321882 C21.620363,16.441151 21.6965327,16.3720245 21.79059,16.3453599 L24.2357015,15.9380889 C25.2554213,15.7700607 26.0027132,14.8871944 25.9999926,13.8537272 L25.9999926,12.1462722 C26.0026483,11.1123731 25.2546585,10.229333 24.2344015,10.0619106 Z M24.1428453,13.8537272 C24.143166,13.9788784 24.052738,14.0858194 23.9292732,14.1062984 L21.4854617,14.5134764 C20.7606325,14.6393891 20.1515242,15.1292645 19.8730921,15.8102248 L19.8513636,15.8641747 C19.5625263,16.5445859 19.6451621,17.325869 20.0699491,17.9308007 L21.5098831,19.9457982 C21.5823846,20.0476196 21.5708904,20.186884 21.482676,20.2754407 L20.2753488,21.4836034 C20.1872538,21.5726129 20.0473128,21.583824 19.9461706,21.5099748 L17.9303372,20.0706909 C17.3133202,19.6550604 16.5290596,19.5763421 15.8417474,19.8610537 C15.1544352,20.1457652 14.6555681,20.7560052 14.5131983,21.4862034 L14.1062987,23.9292718 C14.0859254,24.0525688 13.9792536,24.1428432 13.8542847,24.1428432 L12.1457153,24.1428432 C12.0207113,24.1428432 11.9139874,24.0526035 11.8936084,23.9292718 L11.4864303,21.487132 C11.3561649,20.7515694 10.8534357,20.1363414 10.1585747,19.862134 C9.88280235,19.7456137 9.58658151,19.6851952 9.28720424,19.6844057 C8.85075415,19.6830974 8.42485233,19.8185053 8.06929135,20.0716195 L6.05429365,21.5103463 C5.95262944,21.5828186 5.81350146,21.5713194 5.72511545,21.4831392 L4.51732398,20.2759978 C4.42916073,20.1874548 4.41766829,20.0482511 4.49011686,19.9464482 L5.93051522,17.9307079 C6.35412868,17.3257729 6.43637633,16.5453326 6.14817211,15.8653819 L6.13452213,15.8291676 C5.85816045,15.1399643 5.2453529,14.6424423 4.51407398,14.5135693 L2.07119106,14.1063912 C1.94748657,14.086146 1.85678665,13.9790769 1.85715446,13.8537272 L1.85715446,12.1462722 C1.85679648,12.0212698 1.94698234,11.9143829 2.07026248,11.8937011 L4.51407398,11.4864302 C5.24451696,11.3444439 5.85507458,10.8456068 6.13985005,10.1581406 C6.42462551,9.47067427 6.34566143,8.68621037 5.92958665,8.06929161 L4.48965258,6.05429412 C4.41715107,5.95247277 4.42864529,5.8132083 4.51685969,5.72465168 L5.72465117,4.51639604 C5.81298901,4.42750721 5.95294757,4.41631052 6.05429365,4.49002465 L8.07012706,5.92930856 C8.68708956,6.34518576 9.47146311,6.42404054 10.1588609,6.13929351 C10.8462587,5.85454648 11.3451091,5.24413016 11.487266,4.51379604 L11.8944441,2.07091338 C11.9146904,1.94781963 12.0209678,1.8574092 12.1457153,1.85715635 L13.8542847,1.85715635 C13.9794379,1.85715635 14.0862159,1.94767567 14.1063916,2.07119195 L14.5135697,4.51333176 C14.6555571,5.24377584 15.1543536,5.85435515 15.8417882,6.13921083 C16.5292228,6.42406651 17.3136917,6.34524024 17.9307087,5.92930856 L19.9461706,4.48965322 C20.0476035,4.41634515 20.1873282,4.42789363 20.2753488,4.51686033 L21.4831403,5.72400168 C21.5713036,5.81254467 21.582796,5.95174841 21.5103474,6.05355127 L20.0694848,8.06929161 C19.6536961,8.68640655 19.5750076,9.47088036 19.8599435,10.1582831 C20.1448795,10.8456859 20.7554807,11.3444417 21.485926,11.4864302 L23.9288089,11.8936083 C24.0522941,11.9140513 24.1428453,12.0210141 24.1423801,12.1461794 L24.1428453,13.8537272 Z" id="Shape"></path>
            </g>
        </g>
    </g>
</svg>