<?xml version="1.0" encoding="UTF-8"?>
<svg width="32px" height="32px" viewBox="0 0 32 32" version="1.1" xmlns="http://www.w3.org/2000/svg" xmlns:xlink="http://www.w3.org/1999/xlink">
    <title>Group 11</title>
    <g id="Page-1" stroke="none" stroke-width="1" fill="none" fill-rule="evenodd">
        <g id="Group-11">
            <rect id="Rectangle" x="0" y="0" width="32" height="32"></rect>
            <g id="Artboard-27" transform="translate(4.5, 4.5)" fill="#1F2021" fill-rule="nonzero">
                <path d="M20.7985305,7.47057014 L22.7592652,5.50975325 C22.945952,5.32303572 23.0315025,5.05795969 22.9891907,4.79733525 C22.9468789,4.5367108 22.7818635,4.31231361 22.5456955,4.19424562 L14.3314736,0.0871347081 C14.015209,-0.0709387163 13.6332766,-0.00889911504 13.383306,0.241151367 L11.5000314,2.12459029 L9.6165103,0.241151367 C9.36684621,-0.0094970041 8.98450583,-0.0716028884 8.66834268,0.0871347081 L0.454120847,4.19424562 C0.217952816,4.31231361 0.0529373858,4.5367108 0.0106255814,4.79733525 C-0.0316862231,5.05795969 0.0538643069,5.32303572 0.240551079,5.50975325 L2.20153226,7.47057014 L0.164405243,10.1861097 C0.0183469673,10.3809219 -0.0337578643,10.6304926 0.0221520392,10.8674713 C0.0780619427,11.10445 0.236224299,11.3044128 0.453956563,11.4133966 L2.46438736,12.4188995 L2.46438736,18.0717627 C2.46435126,18.3829002 2.64011098,18.667353 2.9183874,18.8065248 L11.1326092,22.9136357 C11.1398377,22.91725 11.1482162,22.9156893 11.1555269,22.9190571 C11.3724247,23.0273771 11.627638,23.0273771 11.8445358,22.9190571 C11.8518465,22.9156893 11.860225,22.91725 11.8674535,22.9136357 L20.0816753,18.8065248 C20.3599518,18.667353 20.5357115,18.3829002 20.5356754,18.0717627 L20.5356754,12.4188995 L22.5459419,11.4137252 C22.7638057,11.3047862 22.9220842,11.1047739 22.9780324,10.867704 C23.0339806,10.6306341 22.9818274,10.3809602 22.8356575,10.1861097 L20.7985305,7.47057014 Z M5.12275597,7.39327431 L11.5000314,4.20467768 L17.8773068,7.39327431 L11.5000314,10.5818709 L5.12275597,7.39327431 Z M14.1263645,1.82140336 L20.7919591,5.15440601 L19.5521866,6.3937678 L12.886592,3.06076515 L14.1263645,1.82140336 Z M8.87369822,1.82140336 L10.1134707,3.06076515 L3.44787613,6.3937678 L2.20810363,5.15440601 L8.87369822,1.82140336 Z M3.53157906,8.43467336 L10.2521268,11.7949472 L8.7899953,13.7448392 L3.65323168,11.1763342 L3.65191741,11.1758413 L2.06928329,10.3845653 L3.53157906,8.43467336 Z M4.10723172,13.2403217 L8.66834268,15.5208361 C9.02498124,15.6841552 9.44697818,15.5845175 9.69290257,15.2789273 L10.6786092,13.9646518 L10.6786092,20.8497304 L4.10723172,17.5640416 L4.10723172,13.2403217 Z M18.892831,17.5639595 L12.3214536,20.8496482 L12.3214536,13.9646518 L13.3071602,15.2789273 C13.55389,15.5831008 13.9747208,15.6826141 14.3315558,15.5211647 L18.892831,13.2403217 L18.892831,17.5639595 Z M19.3481453,11.1758413 L19.3468311,11.1763342 L14.2101496,13.7448392 L12.7480181,11.7949472 L19.4685658,8.43467336 L20.9306973,10.3845653 L19.3481453,11.1758413 Z" id="Shape"></path>
            </g>
        </g>
    </g>
</svg>