<?xml version="1.0" encoding="UTF-8"?>
<svg width="104px" height="42px" viewBox="0 0 104 42" version="1.1" xmlns="http://www.w3.org/2000/svg" xmlns:xlink="http://www.w3.org/1999/xlink">
    <title>Group 4</title>
    <g id="Page-1" stroke="none" stroke-width="1" fill="none" fill-rule="evenodd">
        <g id="Taskly-Web-Copy-6" transform="translate(-704, -271)" fill-rule="nonzero">
            <g id="Group-4" transform="translate(704, 271)">
                <g id="Group-3" transform="translate(21, 21) rotate(-315) translate(-21, -21)translate(6.2453, 6.0562)">
                    <path d="M29.1477776,3.97160802 L29.1477776,3.97160802 L29.1477776,3.97160802 L3.98877413,3.97160802 L3.98877413,18.4780231 L17.0865853,18.4780231 L17.086609,14.8840591 L21.0133514,14.8840591 L21.0133514,22.4496777 L2.76455443,22.4496777 C1.27199233,22.4496777 0.0620316826,21.2258924 0.0620316826,19.7162768 L0.0620316826,2.73340082 C0.0620316826,1.22378523 1.27199233,1.13686838e-13 2.76455443,1.13686838e-13 L25.1761696,1.13686838e-13 C27.3696281,1.14444348e-13 29.1477776,1.77814948 29.1477776,3.97160802 Z" id="Path-2" fill="#EC1C24"></path>
                    <path d="M29.5093247,11.4095752 L29.5093247,11.4095752 L29.5093247,11.4095752 L3.95877707,11.4095752 L3.95877707,25.9159904 L17.163441,25.9159904 L17.1634649,22.3220263 L21.122242,22.3220263 L21.122242,29.8876449 L2.7245701,29.8876449 C1.21983159,29.8876449 0,28.6638597 0,27.1542441 L0,10.171368 C0,8.66175246 1.21983159,7.43796723 2.7245701,7.43796723 L25.5377167,7.43796723 C27.7311752,7.43796723 29.5093247,9.2161167 29.5093247,11.4095752 Z" id="Path-2-Copy" fill="#565656" transform="translate(14.7547, 18.6628) rotate(-180) translate(-14.7547, -18.6628)"></path>
                </g>
                <g id="Group-5" transform="translate(44, 4)" fill="#565656">
                    <g id="SANED" transform="translate(0, 18.7802)">
                        <path d="M5.21391004,14.2198474 C8.64746055,14.2198474 10.5973781,12.1522731 10.5973781,9.83152652 C10.5973781,7.93273385 9.62241934,6.75126285 7.90564409,6.07613656 L6.23125834,5.42210798 C4.98076772,4.93686096 4.19656174,4.7047863 4.19656174,4.05075771 C4.19656174,3.43892451 4.7476254,3.12245907 5.63780517,3.12245907 C6.4432059,3.12245907 7.37577518,3.46002221 8.30834445,4.0929531 L10.2158725,1.73001111 C8.9653819,0.590735499 7.29099615,0 5.63780517,0 C2.62814978,0 0.50867415,1.91989037 0.50867415,4.26173467 C0.50867415,6.24491814 1.80155428,7.48968222 3.28518722,8.08041772 L5.00196248,8.7977394 C6.16767407,9.26188872 6.86710103,9.47286568 6.86710103,10.1268943 C6.86710103,10.7387275 6.40081639,11.0973883 5.29868907,11.0973883 C4.19656174,11.0973883 2.88248685,10.6754344 1.90752806,9.87372192 L0,12.2366639 C1.48363294,13.6291119 3.391161,14.2198474 5.21391004,14.2198474 Z" id="Path"></path>
                        <path d="M15.9698563,7.29980296 C16.3089724,5.99174578 16.6480885,4.34612546 16.9448151,2.9536775 L17.0295942,2.9536775 C17.3687103,4.32502776 17.7078264,5.99174578 18.0469425,7.29980296 L18.2800848,8.24919929 L15.736714,8.24919929 L15.9698563,7.29980296 Z M10.6711673,13.966675 L14.4014444,13.966675 L15.0796766,11.0551929 L18.9371222,11.0551929 L19.6153544,13.966675 L23.4728001,13.966675 L19.925647,2.37530674 C19.539763,1.11431696 18.3756745,0.253172357 17.0569623,0.253172357 L14.867729,0.253172357 L14.867729,0.253172357 L10.6711673,13.966675 Z" id="Shape"></path>
                        <path d="M26.3943795,13.966675 L27.8703195,13.966675 L27.8703195,13.966675 L27.8703195,10.0003081 C27.8703195,8.31249238 27.5735929,6.32930892 27.4040349,4.76807939 L27.4888139,4.76807939 C27.912709,5.82296421 28.3366041,6.92004442 28.8028888,7.84834306 L31.8549337,13.966675 L35.5852108,13.966675 L35.5852108,0.253172357 L32.1092707,0.253172357 L32.1092707,4.21953928 C32.1092707,5.90735499 32.4059973,7.97492924 32.5755554,9.45176799 L32.4907764,9.45176799 C32.0668812,8.39688317 31.6429861,7.29980296 31.1767015,6.37150431 L28.1246566,0.253172357 L24.3943795,0.253172357 L24.3943795,11.966675 C24.3943795,13.0712445 25.28981,13.966675 26.3943795,13.966675 Z" id="Path"></path>
                        <path d="M40.8522647,13.966675 L46.9660099,13.966675 L46.9660099,13.966675 L46.9660099,10.9286067 L41.4977628,10.9286067 L41.4977628,8.48127395 L45.9910511,8.48127395 L45.9910511,5.44320567 L41.4977628,5.44320567 L41.4977628,3.29124064 L46.7540623,3.29124064 L46.7540623,0.253172357 L37.8522647,0.253172357 L37.8522647,10.966675 C37.8522647,12.6235293 39.1954104,13.966675 40.8522647,13.966675 Z" id="Path"></path>
                        <path d="M51.8515582,13.966675 L53.132899,13.966675 L53.132899,13.966675 C57.1175131,13.966675 60,11.8991008 60,7.0466306 C60,2.19416043 57.1175131,0.253172357 52.9209514,0.253172357 L48.8515582,0.253172357 L48.8515582,10.966675 C48.8515582,12.6235293 50.194704,13.966675 51.8515582,13.966675 Z M52.4970563,11.0551929 L52.4970563,3.16465446 L52.7090038,3.16465446 C54.7013109,3.16465446 56.2697229,3.83978075 56.2697229,7.0466306 C56.2697229,10.2534805 54.7013109,11.0551929 52.7090038,11.0551929 L52.4970563,11.0551929 Z" id="Shape"></path>
                    </g>
                    <g id="ســاند" transform="translate(0.1889, 0)">
                        <path d="M59.6601221,11.4474563 C59.6601221,13.5551503 58.5950829,14.6089974 56.4650044,14.6089974 L40.976564,14.6089974 L40.976564,11.4765949 L44.501223,11.4765949 L44.501223,5.25549779 L47.653357,5.25549779 L47.653357,11.4765949 L50.4759498,11.4765949 L50.4759498,5.25549779 L53.6280838,5.25549779 L53.6280838,11.4765949 L55.1181835,11.4765949 C56.0542718,11.4765949 56.5223159,11.000664 56.5223159,10.0488021 L56.5223159,5.25549779 L59.6601221,5.25549779 L59.6601221,11.4474563 Z" id="Path"></path>
                        <polygon id="Path" points="40.9787665 14.6089974 32.9036694 14.6089974 32.9036694 11.5175865 40.9787665 11.5175865"></polygon>
                        <polygon id="Path" points="34.0911837 14.6089974 26.0160866 14.6089974 26.0160866 11.5175865 34.0911837 11.5175865"></polygon>
                        <path d="M26.966098,14.6089974 L24.4960683,14.6089974 C22.3427091,14.6089974 21.2660294,13.5686187 21.2660294,11.4878614 L21.2660294,0 L24.4814527,0 L24.4814527,10.0371926 C24.4814527,10.9847675 25.0222285,11.458555 26.1037799,11.458555 L26.966098,11.458555 L26.966098,14.6089974 Z" id="Path"></path>
                        <path d="M18.5066412,1.65966694 C18.5066412,2.10226155 18.3475464,2.4833847 18.0293567,2.80303637 C17.711167,3.12268804 17.331787,3.28251387 16.8912167,3.28251387 C16.4506464,3.28251387 16.0712663,3.12268804 15.7530767,2.80303637 C15.434887,2.4833847 15.2757921,2.10226155 15.2757921,1.65966694 C15.2757921,1.21707232 15.434887,0.838408032 15.7530767,0.523674081 C16.0712663,0.20894013 16.4506464,0.0515731546 16.8912167,0.0515731546 C17.331787,0.0515731546 17.711167,0.20894013 18.0293567,0.523674081 C18.3475464,0.838408032 18.5066412,1.21707232 18.5066412,1.65966694 Z M18.653498,11.407563 C18.653498,13.5418526 17.5618626,14.6089974 15.3785919,14.6089974 L11.7659152,14.6089974 L11.7659152,11.4223161 L13.4107111,11.4370693 C14.1841568,11.4469047 14.6638889,11.407563 14.8499075,11.3190441 C15.2415256,11.1420062 15.4373346,10.6994116 15.4373346,9.99126021 L15.4373346,5.13747256 L18.653498,5.13747256 L18.653498,11.407563 Z" id="Shape"></path>
                        <path d="M11.9521079,14.6089974 L0,14.6089974 L0,11.4284574 L5.94658658,11.4284574 L5.94658658,9.68285874 C5.94658658,8.72623121 5.47904169,8.24791745 4.54395191,8.24791745 L0.0292215557,8.24791745 L0.0292215557,5.0969639 L6.70634702,5.0969639 C8.41093777,5.0969639 9.26323315,5.89086612 9.26323315,7.47867057 L9.26323315,11.4284574 L11.9521079,11.4284574 L11.9521079,14.6089974 Z" id="Path"></path>
                    </g>
                </g>
            </g>
        </g>
    </g>
</svg>