<?xml version="1.0" standalone="no"?>
<!DOCTYPE svg PUBLIC "-//W3C//DTD SVG 20010904//EN"
 "http://www.w3.org/TR/2001/REC-SVG-20010904/DTD/svg10.dtd">
<svg version="1.0" xmlns="http://www.w3.org/2000/svg"
 width="500.000000pt" height="500.000000pt" viewBox="0 0 500.000000 500.000000"
 preserveAspectRatio="xMidYMid meet">
<metadata>
Created by potrace 1.14, written by Peter Selinger 2001-2017
</metadata>
<g transform="translate(0.000000,500.000000) scale(0.100000,-0.100000)"
fill="#000000" stroke="none">
<path d="M2444 4851 c-89 -23 -118 -49 -877 -810 -724 -725 -756 -758 -777
-816 -37 -98 -28 -201 24 -288 14 -23 375 -392 803 -820 l778 -777 319 319
319 319 -166 165 -165 165 -151 -151 -151 -152 -552 552 -552 552 610 610 610
611 1059 -1060 1060 -1059 28 32 c35 39 92 158 102 211 10 57 8 144 -5 200
-29 129 8 90 -1054 1154 -1088 1090 -1035 1042 -1164 1048 -37 2 -81 -1 -98
-5z"/>
<path d="M2277 3350 l-319 -318 167 -168 167 -167 151 152 152 151 555 -555
554 -554 -34 -36 c-176 -183 -1179 -1178 -1186 -1177 -5 1 -489 482 -1077
1069 -882 883 -1070 1066 -1083 1058 -26 -17 -92 -133 -109 -193 -37 -125 -13
-274 60 -386 43 -66 2009 -2028 2055 -2052 94 -47 198 -50 290 -8 47 22 156
126 794 762 410 410 752 759 770 787 43 67 55 114 51 194 -6 129 29 89 -844
963 l-796 797 -318 -319z"/>
</g>
</svg>
